<svg width="203" height="75" fill="none" xmlns="http://www.w3.org/2000/svg"><path d="M41.4 57V42.6h11.45V57h-2.09V44.57h-7.27V57H41.4zm14.258 0V42.6h5.82c.14 0 .313.007.52.02.207.007.403.027.59.06.8.127 1.467.4 2 .82.54.42.943.95 1.21 1.59.266.64.4 1.347.4 2.12 0 .78-.133 1.49-.4 2.13a3.86 3.86 0 01-1.21 1.59c-.533.42-1.2.693-2 .82a7.58 7.58 0 01-.6.06c-.207.013-.377.02-.51.02h-3.73V57h-2.09zm2.09-7.15h3.65c.133 0 .28-.007.44-.02.166-.013.323-.037.47-.07.426-.1.77-.283 1.03-.55.26-.273.447-.587.56-.94a3.361 3.361 0 000-2.11 2.338 2.338 0 00-.56-.93c-.26-.273-.604-.46-1.03-.56a2.557 2.557 0 00-.47-.08 5.347 5.347 0 00-.44-.02h-3.65v5.28zm16.459 7.45c-1.44 0-2.667-.313-3.68-.94-1.014-.633-1.79-1.513-2.33-2.64-.534-1.127-.8-2.433-.8-3.92s.266-2.793.8-3.92c.54-1.127 1.316-2.003 2.33-2.63 1.013-.633 2.24-.95 3.68-.95 1.433 0 2.657.317 3.67.95 1.02.627 1.797 1.503 2.33 2.63.533 1.127.8 2.433.8 3.92s-.267 2.793-.8 3.92c-.533 1.127-1.31 2.007-2.33 2.64-1.013.627-2.237.94-3.67.94zm0-1.99c1.02.013 1.867-.21 2.54-.67.68-.467 1.19-1.113 1.53-1.94.34-.833.51-1.8.51-2.9 0-1.1-.17-2.06-.51-2.88-.34-.827-.85-1.47-1.53-1.93-.674-.46-1.52-.693-2.54-.7-1.02-.013-1.87.21-2.55.67-.673.46-1.18 1.107-1.52 1.94-.34.833-.513 1.8-.52 2.9-.007 1.1.16 2.063.5 2.89.34.82.85 1.46 1.53 1.92.686.46 1.54.693 2.56.7zM83.002 57V42.6h5.82c.14 0 .313.007.52.02.206.007.403.027.59.06.8.127 1.466.4 2 .82.54.42.943.95 1.21 1.59.266.64.4 1.347.4 2.12 0 .78-.134 1.49-.4 2.13a3.86 3.86 0 01-1.21 1.59c-.534.42-1.2.693-2 .82a7.58 7.58 0 01-.6.06c-.207.013-.377.02-.51.02h-3.73V57h-2.09zm2.09-7.15h3.65c.133 0 .28-.007.44-.02.166-.013.323-.037.47-.07.426-.1.77-.283 1.03-.55a2.43 2.43 0 00.56-.94 3.361 3.361 0 000-2.11 2.34 2.34 0 00-.56-.93c-.26-.273-.604-.46-1.03-.56a2.559 2.559 0 00-.47-.08 5.347 5.347 0 00-.44-.02h-3.65v5.28zM95.53 57V42.6h2.09v5.17h3.73c.133 0 .303.007.51.02.213.007.41.027.59.06.8.127 1.466.4 2 .82.54.42.943.95 1.21 1.59.273.64.41 1.35.41 2.13 0 .773-.134 1.48-.4 2.12-.267.64-.67 1.17-1.21 1.59-.534.42-1.204.693-2.01.82a8.347 8.347 0 01-1.1.08h-5.82zm2.09-1.97h3.65c.126 0 .27-.007.43-.02.166-.013.323-.04.47-.08.433-.1.776-.283 1.03-.55.26-.273.446-.583.56-.93.12-.353.18-.707.18-1.06 0-.353-.06-.707-.18-1.06a2.346 2.346 0 00-.56-.93c-.254-.273-.597-.46-1.03-.56a2.112 2.112 0 00-.47-.07 5.26 5.26 0 00-.43-.02h-3.65v5.28zm9.87 1.97V42.6h2.09V57h-2.09zm4.905 0V42.6h5.66c.913 0 1.68.187 2.3.56.62.373 1.087.857 1.4 1.45.313.587.47 1.207.47 1.86 0 .793-.197 1.473-.59 2.04-.387.567-.91.953-1.57 1.16l-.02-.49c.92.227 1.627.67 2.12 1.33.493.653.74 1.417.74 2.29 0 .847-.17 1.583-.51 2.21a3.546 3.546 0 01-1.47 1.47c-.64.347-1.417.52-2.33.52h-6.2zm2.12-1.99h3.76c.473 0 .897-.09 1.27-.27.38-.18.677-.437.89-.77.22-.34.33-.743.33-1.21 0-.433-.097-.823-.29-1.17a2.01 2.01 0 00-.82-.83c-.353-.207-.77-.31-1.25-.31h-3.89v4.56zm0-6.53h3.51c.387 0 .733-.077 1.04-.23.313-.16.56-.387.74-.68.187-.3.28-.66.28-1.08 0-.56-.187-1.02-.56-1.38-.373-.36-.873-.54-1.5-.54h-3.51v3.91zm10.18 3.05v-1.68h6v1.68h-6zm8.199 5.46l.01-1.86 6.27-5.62c.506-.447.85-.873 1.03-1.28.186-.407.28-.813.28-1.22 0-.513-.114-.973-.34-1.38a2.557 2.557 0 00-.94-.98c-.4-.24-.86-.36-1.38-.36a2.713 2.713 0 00-2.4 1.37c-.234.413-.347.86-.34 1.34h-2.14c0-.933.21-1.75.63-2.45a4.432 4.432 0 011.75-1.65c.74-.4 1.586-.6 2.54-.6.906 0 1.72.207 2.44.62.72.407 1.286.967 1.7 1.68.42.713.63 1.527.63 2.44 0 .66-.087 1.22-.26 1.68-.174.46-.434.887-.78 1.28-.347.393-.78.82-1.3 1.28l-4.84 4.32-.23-.6h7.41v1.99h-9.74zm17.847.01v-2.51h-6.5v-1.98l4.68-9.91h2.39l-4.68 9.91h4.11v-3.9h2.12v3.9h1.43v1.98h-1.43V57h-2.12z" fill="#070707"/><path d="M75.3 23.732H1.213v50h200v-50h-74.089" stroke="#070707" stroke-width="2"/><path d="M109.024 10.456a2.973 2.973 0 00-2.116-.877c-.799 0-1.551.312-2.116.877a2.971 2.971 0 00-.877 2.116c0 .8.311 1.551.877 2.117a2.973 2.973 0 002.116.876c.799 0 1.551-.311 2.116-.876a2.971 2.971 0 00.877-2.117c0-.8-.311-1.55-.877-2.116zm-1.19 3.042a1.301 1.301 0 01-.926.384 1.3 1.3 0 01-.926-.384 1.302 1.302 0 01-.384-.926c0-.35.137-.678.384-.926a1.3 1.3 0 01.926-.383 1.31 1.31 0 01.926 2.235zm-21.842 15.08a.842.842 0 01-.595-1.437l4.867-4.868a.842.842 0 011.191 1.19l-4.868 4.868a.839.839 0 01-.595.247zm1.088 4.664a.841.841 0 01-.595-1.437l5.073-5.074a.842.842 0 111.19 1.19l-5.073 5.074a.84.84 0 01-.595.247zm4.665 1.088a.842.842 0 01-.595-1.437l4.867-4.868a.842.842 0 011.191 1.191l-4.868 4.868a.839.839 0 01-.595.246z" fill="#070707"/><path d="M116.604 2.877a.841.841 0 00-.729-.236c-.097.016-2.431.399-5.61 1.614a34.18 34.18 0 00-5.268 2.536c-2.001 1.192-3.793 2.565-5.328 4.083l-6.357 1.237a.843.843 0 00-.434.23l-5.76 5.742a.842.842 0 00.756 1.422l6.496-1.264c-.423.83-.818 1.69-1.186 2.583a.843.843 0 00.184.916l1.591 1.591-1.478 1.479A.842.842 0 1094.67 26l1.479-1.478 1.591 1.591a.843.843 0 00.916.184 34.962 34.962 0 002.583-1.186l-1.264 6.497a.842.842 0 001.422.755l5.741-5.76a.85.85 0 00.231-.433l1.237-6.358c1.518-1.535 2.891-3.326 4.083-5.328a34.125 34.125 0 002.536-5.268c1.215-3.18 1.598-5.512 1.614-5.61a.842.842 0 00-.236-.73zm-26.34 14.448l3.621-3.61 3.897-.758a28.769 28.769 0 00-2.349 3.361l-5.17 1.007zm15.502 8.27l-3.61 3.622 1.007-5.169c1.2-.72 2.322-1.503 3.361-2.348l-.758 3.896zm7.872-16.94c-1.063 2.773-3.022 6.77-6.321 10.068-1.519 1.518-3.287 2.868-5.284 4.037a31.937 31.937 0 01-3.501 1.763L97.34 23.33l2.405-2.404a.841.841 0 10-1.19-1.19L96.15 22.14l-1.191-1.192a31.92 31.92 0 011.702-3.399.828.828 0 00.06-.102c1.169-1.997 2.519-3.765 4.037-5.284 3.299-3.299 7.295-5.258 10.067-6.321a33.427 33.427 0 014.093-1.28 33.486 33.486 0 01-1.28 4.093z" fill="#070707"/></svg>