<svg width="203" height="75" viewBox="0 0 203 75" fill="none" xmlns="http://www.w3.org/2000/svg">
<path d="M41.4 57V42.6H52.85V57H50.76V44.57H43.49V57H41.4ZM55.6578 57V42.6H61.4778C61.6178 42.6 61.7911 42.6067 61.9978 42.62C62.2045 42.6267 62.4011 42.6467 62.5878 42.68C63.3878 42.8067 64.0545 43.08 64.5878 43.5C65.1278 43.92 65.5311 44.45 65.7978 45.09C66.0645 45.73 66.1978 46.4367 66.1978 47.21C66.1978 47.99 66.0645 48.7 65.7978 49.34C65.5311 49.98 65.1278 50.51 64.5878 50.93C64.0545 51.35 63.3878 51.6233 62.5878 51.75C62.4011 51.7767 62.2011 51.7967 61.9878 51.81C61.7811 51.8233 61.6111 51.83 61.4778 51.83H57.7478V57H55.6578ZM57.7478 49.85H61.3978C61.5311 49.85 61.6778 49.8433 61.8378 49.83C62.0045 49.8167 62.1611 49.7933 62.3078 49.76C62.7345 49.66 63.0778 49.4767 63.3378 49.21C63.5978 48.9367 63.7845 48.6233 63.8978 48.27C64.0111 47.9167 64.0678 47.5633 64.0678 47.21C64.0678 46.8567 64.0111 46.5067 63.8978 46.16C63.7845 45.8067 63.5978 45.4967 63.3378 45.23C63.0778 44.9567 62.7345 44.77 62.3078 44.67C62.1611 44.63 62.0045 44.6033 61.8378 44.59C61.6778 44.5767 61.5311 44.57 61.3978 44.57H57.7478V49.85ZM74.2069 57.3C72.7669 57.3 71.5402 56.9867 70.5269 56.36C69.5135 55.7267 68.7369 54.8467 68.1969 53.72C67.6635 52.5933 67.3969 51.2867 67.3969 49.8C67.3969 48.3133 67.6635 47.0067 68.1969 45.88C68.7369 44.7533 69.5135 43.8767 70.5269 43.25C71.5402 42.6167 72.7669 42.3 74.2069 42.3C75.6402 42.3 76.8635 42.6167 77.8769 43.25C78.8969 43.8767 79.6735 44.7533 80.2069 45.88C80.7402 47.0067 81.0069 48.3133 81.0069 49.8C81.0069 51.2867 80.7402 52.5933 80.2069 53.72C79.6735 54.8467 78.8969 55.7267 77.8769 56.36C76.8635 56.9867 75.6402 57.3 74.2069 57.3ZM74.2069 55.31C75.2269 55.3233 76.0735 55.1 76.7469 54.64C77.4269 54.1733 77.9369 53.5267 78.2769 52.7C78.6169 51.8667 78.7869 50.9 78.7869 49.8C78.7869 48.7 78.6169 47.74 78.2769 46.92C77.9369 46.0933 77.4269 45.45 76.7469 44.99C76.0735 44.53 75.2269 44.2967 74.2069 44.29C73.1869 44.2767 72.3369 44.5 71.6569 44.96C70.9835 45.42 70.4769 46.0667 70.1369 46.9C69.7969 47.7333 69.6235 48.7 69.6169 49.8C69.6102 50.9 69.7769 51.8633 70.1169 52.69C70.4569 53.51 70.9669 54.15 71.6469 54.61C72.3335 55.07 73.1869 55.3033 74.2069 55.31ZM83.0016 57V42.6H88.8216C88.9616 42.6 89.1349 42.6067 89.3416 42.62C89.5482 42.6267 89.7449 42.6467 89.9316 42.68C90.7316 42.8067 91.3982 43.08 91.9316 43.5C92.4716 43.92 92.8749 44.45 93.1416 45.09C93.4082 45.73 93.5416 46.4367 93.5416 47.21C93.5416 47.99 93.4082 48.7 93.1416 49.34C92.8749 49.98 92.4716 50.51 91.9316 50.93C91.3982 51.35 90.7316 51.6233 89.9316 51.75C89.7449 51.7767 89.5449 51.7967 89.3316 51.81C89.1249 51.8233 88.9549 51.83 88.8216 51.83H85.0916V57H83.0016ZM85.0916 49.85H88.7416C88.8749 49.85 89.0216 49.8433 89.1816 49.83C89.3482 49.8167 89.5049 49.7933 89.6516 49.76C90.0782 49.66 90.4216 49.4767 90.6816 49.21C90.9416 48.9367 91.1282 48.6233 91.2416 48.27C91.3549 47.9167 91.4116 47.5633 91.4116 47.21C91.4116 46.8567 91.3549 46.5067 91.2416 46.16C91.1282 45.8067 90.9416 45.4967 90.6816 45.23C90.4216 44.9567 90.0782 44.77 89.6516 44.67C89.5049 44.63 89.3482 44.6033 89.1816 44.59C89.0216 44.5767 88.8749 44.57 88.7416 44.57H85.0916V49.85ZM95.5306 57V42.6H97.6206V47.77H101.351C101.484 47.77 101.654 47.7767 101.861 47.79C102.074 47.7967 102.271 47.8167 102.451 47.85C103.251 47.9767 103.917 48.25 104.451 48.67C104.991 49.09 105.394 49.62 105.661 50.26C105.934 50.9 106.071 51.61 106.071 52.39C106.071 53.1633 105.937 53.87 105.671 54.51C105.404 55.15 105.001 55.68 104.461 56.1C103.927 56.52 103.257 56.7933 102.451 56.92C102.271 56.9467 102.077 56.9667 101.871 56.98C101.664 56.9933 101.491 57 101.351 57H95.5306ZM97.6206 55.03H101.271C101.397 55.03 101.541 55.0233 101.701 55.01C101.867 54.9967 102.024 54.97 102.171 54.93C102.604 54.83 102.947 54.6467 103.201 54.38C103.461 54.1067 103.647 53.7967 103.761 53.45C103.881 53.0967 103.941 52.7433 103.941 52.39C103.941 52.0367 103.881 51.6833 103.761 51.33C103.647 50.9767 103.461 50.6667 103.201 50.4C102.947 50.1267 102.604 49.94 102.171 49.84C102.024 49.8 101.867 49.7767 101.701 49.77C101.541 49.7567 101.397 49.75 101.271 49.75H97.6206V55.03ZM107.491 57V42.6H109.581V57H107.491ZM112.396 57V42.6H118.056C118.969 42.6 119.736 42.7867 120.356 43.16C120.976 43.5333 121.443 44.0167 121.756 44.61C122.069 45.1967 122.226 45.8167 122.226 46.47C122.226 47.2633 122.029 47.9433 121.636 48.51C121.249 49.0767 120.726 49.4633 120.066 49.67L120.046 49.18C120.966 49.4067 121.673 49.85 122.166 50.51C122.659 51.1633 122.906 51.9267 122.906 52.8C122.906 53.6467 122.736 54.3833 122.396 55.01C122.063 55.6367 121.573 56.1267 120.926 56.48C120.286 56.8267 119.509 57 118.596 57H112.396ZM114.516 55.01H118.276C118.749 55.01 119.173 54.92 119.546 54.74C119.926 54.56 120.223 54.3033 120.436 53.97C120.656 53.63 120.766 53.2267 120.766 52.76C120.766 52.3267 120.669 51.9367 120.476 51.59C120.289 51.2367 120.016 50.96 119.656 50.76C119.303 50.5533 118.886 50.45 118.406 50.45H114.516V55.01ZM114.516 48.48H118.026C118.413 48.48 118.759 48.4033 119.066 48.25C119.379 48.09 119.626 47.8633 119.806 47.57C119.993 47.27 120.086 46.91 120.086 46.49C120.086 45.93 119.899 45.47 119.526 45.11C119.153 44.75 118.653 44.57 118.026 44.57H114.516V48.48ZM128.7 51.53V49.85H134.7V51.53H128.7ZM140.902 56.99L140.912 55.13L147.182 49.51C147.689 49.0633 148.032 48.6367 148.212 48.23C148.399 47.8233 148.492 47.4167 148.492 47.01C148.492 46.4967 148.379 46.0367 148.152 45.63C147.926 45.2167 147.612 44.89 147.212 44.65C146.812 44.41 146.352 44.29 145.832 44.29C145.299 44.29 144.822 44.4167 144.402 44.67C143.989 44.9167 143.666 45.2467 143.432 45.66C143.199 46.0733 143.086 46.52 143.092 47H140.952C140.952 46.0667 141.162 45.25 141.582 44.55C142.009 43.8433 142.592 43.2933 143.332 42.9C144.072 42.5 144.919 42.3 145.872 42.3C146.779 42.3 147.592 42.5067 148.312 42.92C149.032 43.3267 149.599 43.8867 150.012 44.6C150.432 45.3133 150.642 46.1267 150.642 47.04C150.642 47.7 150.556 48.26 150.382 48.72C150.209 49.18 149.949 49.6067 149.602 50C149.256 50.3933 148.822 50.82 148.302 51.28L143.462 55.6L143.232 55H150.642V56.99H140.902ZM158.75 57V54.49H152.25V52.51L156.93 42.6H159.32L154.64 52.51H158.75V48.61H160.87V52.51H162.3V54.49H160.87V57H158.75Z" fill="white"/>
<path d="M75.3009 23.7324H1.21191V73.7324H101.212H201.212V23.7324H127.123" stroke="white" stroke-width="2"/>
<path d="M109.024 10.4558C108.459 9.8904 107.707 9.5791 106.908 9.5791C106.109 9.5791 105.357 9.8904 104.792 10.4558C104.226 11.0211 103.915 11.7727 103.915 12.5721C103.915 13.3716 104.226 14.1232 104.792 14.6885C105.357 15.2539 106.109 15.565 106.908 15.5652C106.908 15.5652 106.908 15.5652 106.908 15.5652C107.707 15.5652 108.459 15.2539 109.024 14.6885C109.59 14.1231 109.901 13.3715 109.901 12.5721C109.901 11.7727 109.59 11.0211 109.024 10.4558ZM107.834 13.498C107.586 13.7454 107.258 13.8818 106.908 13.8818C106.558 13.8817 106.229 13.7454 105.982 13.498C105.735 13.2508 105.598 12.9221 105.598 12.5721C105.598 12.2225 105.735 11.8936 105.982 11.6463C106.229 11.399 106.558 11.2628 106.908 11.2628C107.258 11.2628 107.586 11.3989 107.834 11.6463C108.345 12.1568 108.345 12.9875 107.834 13.498Z" fill="white"/>
<path d="M85.9921 28.5775C85.7767 28.5775 85.5613 28.4954 85.397 28.3311C85.0682 28.0023 85.0682 27.4691 85.397 27.1405L90.2645 22.2729C90.5932 21.9442 91.1263 21.9442 91.455 22.2729C91.7838 22.6016 91.7838 23.1348 91.455 23.4635L86.5873 28.3311C86.423 28.4954 86.2076 28.5775 85.9921 28.5775Z" fill="white"/>
<path d="M87.0801 33.2415C86.8646 33.2415 86.6492 33.1593 86.4849 32.9949C86.1561 32.6662 86.1561 32.1333 86.4849 31.8045L91.5584 26.731C91.8872 26.4022 92.4202 26.4022 92.7488 26.731C93.0776 27.0597 93.0776 27.5928 92.7488 27.9215L87.6754 32.9949C87.511 33.1593 87.2955 33.2415 87.0801 33.2415Z" fill="white"/>
<path d="M91.7452 34.3305C91.5297 34.3305 91.3143 34.2484 91.1499 34.0841C90.8211 33.7553 90.8211 33.2222 91.1499 32.8936L96.0175 28.0258C96.3462 27.6972 96.8793 27.6971 97.208 28.0258C97.5367 28.3545 97.5367 28.8877 97.208 29.2165L92.3404 34.0841C92.1761 34.2484 91.9607 34.3305 91.7452 34.3305Z" fill="white"/>
<path d="M116.604 2.87661C116.413 2.68552 116.142 2.59762 115.875 2.64059C115.778 2.65646 113.444 3.03966 110.265 4.25447C108.4 4.96703 106.628 5.82041 104.997 6.79093C102.996 7.98255 101.204 9.35605 99.6692 10.8737L93.3118 12.1113C93.1477 12.1432 92.9969 12.2235 92.8784 12.3414L87.1187 18.0826C86.8562 18.3442 86.7958 18.7464 86.9694 19.0737C87.1174 19.3523 87.4057 19.5207 87.7126 19.5207C87.7661 19.5207 87.82 19.5156 87.8739 19.5053L94.3703 18.2404C93.9474 19.0701 93.5518 19.9315 93.1845 20.8243C93.0555 21.1386 93.1277 21.4995 93.3679 21.7399L94.9593 23.3313L93.4808 24.8098C93.152 25.1386 93.152 25.6715 93.4808 26.0003C93.6452 26.1646 93.8605 26.2469 94.0761 26.2469C94.2915 26.2469 94.5069 26.1646 94.6713 26.0004L96.1498 24.5218L97.7412 26.1134C97.9023 26.2742 98.1176 26.3599 98.3367 26.3599C98.4444 26.3599 98.5532 26.3392 98.6567 26.2965C99.5495 25.9294 100.411 25.5337 101.24 25.111L99.9759 31.6075C99.9051 31.9711 100.08 32.3382 100.407 32.5119C100.532 32.578 100.667 32.6103 100.802 32.6103C101.02 32.6103 101.236 32.525 101.398 32.3626L107.139 26.603C107.257 26.4846 107.337 26.3336 107.37 26.1696L108.607 19.8122C110.125 18.2769 111.498 16.4855 112.69 14.4838C113.66 12.8536 114.514 11.0816 115.226 9.21638C116.441 6.03665 116.824 3.70369 116.84 3.60583C116.883 3.33883 116.795 3.06757 116.604 2.87661ZM90.2639 17.3245L93.8853 13.7149L97.7816 12.9564C96.9365 13.9959 96.1526 15.1177 95.433 16.3182L90.2639 17.3245ZM105.766 25.5957L102.156 29.217L103.163 24.048C104.363 23.3284 105.485 22.5446 106.524 21.6994L105.766 25.5957ZM113.638 8.65581C112.575 11.4276 110.616 15.4241 107.317 18.7228C105.798 20.2413 104.03 21.591 102.033 22.7597C101.998 22.7775 101.963 22.7976 101.93 22.8204C100.861 23.44 99.7275 24.0082 98.5316 24.5225L97.3404 23.3311L99.745 20.9267C100.074 20.598 100.074 20.0649 99.745 19.7361C99.4162 19.4074 98.8832 19.4074 98.5545 19.7361L96.1498 22.1406L94.9586 20.9492C95.4731 19.7532 96.0412 18.6191 96.661 17.5501C96.6836 17.5175 96.7033 17.4834 96.721 17.4481C97.8897 15.451 99.2395 13.6826 100.758 12.1638C104.057 8.86521 108.053 6.90568 110.825 5.84285C112.509 5.19682 113.959 4.79402 114.918 4.56311C114.687 5.52173 114.284 6.97162 113.638 8.65581Z" fill="white"/>
</svg>
