<svg width="203" height="75" viewBox="0 0 203 75" fill="none" xmlns="http://www.w3.org/2000/svg">
<path d="M41.4 57V42.6H52.85V57H50.76V44.57H43.49V57H41.4ZM55.6578 57V42.6H61.4778C61.6178 42.6 61.7911 42.6067 61.9978 42.62C62.2045 42.6267 62.4011 42.6467 62.5878 42.68C63.3878 42.8067 64.0545 43.08 64.5878 43.5C65.1278 43.92 65.5311 44.45 65.7978 45.09C66.0645 45.73 66.1978 46.4367 66.1978 47.21C66.1978 47.99 66.0645 48.7 65.7978 49.34C65.5311 49.98 65.1278 50.51 64.5878 50.93C64.0545 51.35 63.3878 51.6233 62.5878 51.75C62.4011 51.7767 62.2011 51.7967 61.9878 51.81C61.7811 51.8233 61.6111 51.83 61.4778 51.83H57.7478V57H55.6578ZM57.7478 49.85H61.3978C61.5311 49.85 61.6778 49.8433 61.8378 49.83C62.0045 49.8167 62.1611 49.7933 62.3078 49.76C62.7345 49.66 63.0778 49.4767 63.3378 49.21C63.5978 48.9367 63.7845 48.6233 63.8978 48.27C64.0111 47.9167 64.0678 47.5633 64.0678 47.21C64.0678 46.8567 64.0111 46.5067 63.8978 46.16C63.7845 45.8067 63.5978 45.4967 63.3378 45.23C63.0778 44.9567 62.7345 44.77 62.3078 44.67C62.1611 44.63 62.0045 44.6033 61.8378 44.59C61.6778 44.5767 61.5311 44.57 61.3978 44.57H57.7478V49.85ZM74.2069 57.3C72.7669 57.3 71.5402 56.9867 70.5269 56.36C69.5135 55.7267 68.7369 54.8467 68.1969 53.72C67.6635 52.5933 67.3969 51.2867 67.3969 49.8C67.3969 48.3133 67.6635 47.0067 68.1969 45.88C68.7369 44.7533 69.5135 43.8767 70.5269 43.25C71.5402 42.6167 72.7669 42.3 74.2069 42.3C75.6402 42.3 76.8635 42.6167 77.8769 43.25C78.8969 43.8767 79.6735 44.7533 80.2069 45.88C80.7402 47.0067 81.0069 48.3133 81.0069 49.8C81.0069 51.2867 80.7402 52.5933 80.2069 53.72C79.6735 54.8467 78.8969 55.7267 77.8769 56.36C76.8635 56.9867 75.6402 57.3 74.2069 57.3ZM74.2069 55.31C75.2269 55.3233 76.0735 55.1 76.7469 54.64C77.4269 54.1733 77.9369 53.5267 78.2769 52.7C78.6169 51.8667 78.7869 50.9 78.7869 49.8C78.7869 48.7 78.6169 47.74 78.2769 46.92C77.9369 46.0933 77.4269 45.45 76.7469 44.99C76.0735 44.53 75.2269 44.2967 74.2069 44.29C73.1869 44.2767 72.3369 44.5 71.6569 44.96C70.9835 45.42 70.4769 46.0667 70.1369 46.9C69.7969 47.7333 69.6235 48.7 69.6169 49.8C69.6102 50.9 69.7769 51.8633 70.1169 52.69C70.4569 53.51 70.9669 54.15 71.6469 54.61C72.3335 55.07 73.1869 55.3033 74.2069 55.31ZM83.0016 57V42.6H88.8216C88.9616 42.6 89.1349 42.6067 89.3416 42.62C89.5482 42.6267 89.7449 42.6467 89.9316 42.68C90.7316 42.8067 91.3982 43.08 91.9316 43.5C92.4716 43.92 92.8749 44.45 93.1416 45.09C93.4082 45.73 93.5416 46.4367 93.5416 47.21C93.5416 47.99 93.4082 48.7 93.1416 49.34C92.8749 49.98 92.4716 50.51 91.9316 50.93C91.3982 51.35 90.7316 51.6233 89.9316 51.75C89.7449 51.7767 89.5449 51.7967 89.3316 51.81C89.1249 51.8233 88.9549 51.83 88.8216 51.83H85.0916V57H83.0016ZM85.0916 49.85H88.7416C88.8749 49.85 89.0216 49.8433 89.1816 49.83C89.3482 49.8167 89.5049 49.7933 89.6516 49.76C90.0782 49.66 90.4216 49.4767 90.6816 49.21C90.9416 48.9367 91.1282 48.6233 91.2416 48.27C91.3549 47.9167 91.4116 47.5633 91.4116 47.21C91.4116 46.8567 91.3549 46.5067 91.2416 46.16C91.1282 45.8067 90.9416 45.4967 90.6816 45.23C90.4216 44.9567 90.0782 44.77 89.6516 44.67C89.5049 44.63 89.3482 44.6033 89.1816 44.59C89.0216 44.5767 88.8749 44.57 88.7416 44.57H85.0916V49.85ZM95.5306 57V42.6H97.6206V47.77H101.351C101.484 47.77 101.654 47.7767 101.861 47.79C102.074 47.7967 102.271 47.8167 102.451 47.85C103.251 47.9767 103.917 48.25 104.451 48.67C104.991 49.09 105.394 49.62 105.661 50.26C105.934 50.9 106.071 51.61 106.071 52.39C106.071 53.1633 105.937 53.87 105.671 54.51C105.404 55.15 105.001 55.68 104.461 56.1C103.927 56.52 103.257 56.7933 102.451 56.92C102.271 56.9467 102.077 56.9667 101.871 56.98C101.664 56.9933 101.491 57 101.351 57H95.5306ZM97.6206 55.03H101.271C101.397 55.03 101.541 55.0233 101.701 55.01C101.867 54.9967 102.024 54.97 102.171 54.93C102.604 54.83 102.947 54.6467 103.201 54.38C103.461 54.1067 103.647 53.7967 103.761 53.45C103.881 53.0967 103.941 52.7433 103.941 52.39C103.941 52.0367 103.881 51.6833 103.761 51.33C103.647 50.9767 103.461 50.6667 103.201 50.4C102.947 50.1267 102.604 49.94 102.171 49.84C102.024 49.8 101.867 49.7767 101.701 49.77C101.541 49.7567 101.397 49.75 101.271 49.75H97.6206V55.03ZM107.491 57V42.6H109.581V57H107.491ZM112.396 57V42.6H118.056C118.969 42.6 119.736 42.7867 120.356 43.16C120.976 43.5333 121.443 44.0167 121.756 44.61C122.069 45.1967 122.226 45.8167 122.226 46.47C122.226 47.2633 122.029 47.9433 121.636 48.51C121.249 49.0767 120.726 49.4633 120.066 49.67L120.046 49.18C120.966 49.4067 121.673 49.85 122.166 50.51C122.659 51.1633 122.906 51.9267 122.906 52.8C122.906 53.6467 122.736 54.3833 122.396 55.01C122.063 55.6367 121.573 56.1267 120.926 56.48C120.286 56.8267 119.509 57 118.596 57H112.396ZM114.516 55.01H118.276C118.749 55.01 119.173 54.92 119.546 54.74C119.926 54.56 120.223 54.3033 120.436 53.97C120.656 53.63 120.766 53.2267 120.766 52.76C120.766 52.3267 120.669 51.9367 120.476 51.59C120.289 51.2367 120.016 50.96 119.656 50.76C119.303 50.5533 118.886 50.45 118.406 50.45H114.516V55.01ZM114.516 48.48H118.026C118.413 48.48 118.759 48.4033 119.066 48.25C119.379 48.09 119.626 47.8633 119.806 47.57C119.993 47.27 120.086 46.91 120.086 46.49C120.086 45.93 119.899 45.47 119.526 45.11C119.153 44.75 118.653 44.57 118.026 44.57H114.516V48.48ZM124.696 51.53V49.85H130.696V51.53H124.696ZM132.895 56.99L132.905 55.13L139.175 49.51C139.681 49.0633 140.025 48.6367 140.205 48.23C140.391 47.8233 140.485 47.4167 140.485 47.01C140.485 46.4967 140.371 46.0367 140.145 45.63C139.918 45.2167 139.605 44.89 139.205 44.65C138.805 44.41 138.345 44.29 137.825 44.29C137.291 44.29 136.815 44.4167 136.395 44.67C135.981 44.9167 135.658 45.2467 135.425 45.66C135.191 46.0733 135.078 46.52 135.085 47H132.945C132.945 46.0667 133.155 45.25 133.575 44.55C134.001 43.8433 134.585 43.2933 135.325 42.9C136.065 42.5 136.911 42.3 137.865 42.3C138.771 42.3 139.585 42.5067 140.305 42.92C141.025 43.3267 141.591 43.8867 142.005 44.6C142.425 45.3133 142.635 46.1267 142.635 47.04C142.635 47.7 142.548 48.26 142.375 48.72C142.201 49.18 141.941 49.6067 141.595 50C141.248 50.3933 140.815 50.82 140.295 51.28L135.455 55.6L135.225 55H142.635V56.99H132.895ZM150.742 57V54.49H144.242V52.51L148.922 42.6H151.312L146.632 52.51H150.742V48.61H152.862V52.51H154.292V54.49H152.862V57H150.742Z" fill="#070707"/>
<path d="M75.3009 23.7321H1.21191V73.7321H101.212H201.212V23.7321H127.123" stroke="#070707" stroke-width="2"/>
<path d="M109.024 10.4559C108.459 9.89053 107.707 9.57922 106.908 9.57922C106.109 9.57922 105.357 9.89053 104.792 10.4559C104.226 11.0212 103.915 11.7729 103.915 12.5722C103.915 13.3717 104.226 14.1233 104.792 14.6887C105.357 15.254 106.109 15.5652 106.908 15.5653C106.908 15.5653 106.908 15.5653 106.908 15.5653C107.707 15.5653 108.459 15.254 109.024 14.6887C109.59 14.1233 109.901 13.3716 109.901 12.5722C109.901 11.7729 109.59 11.0213 109.024 10.4559ZM107.834 13.4981C107.586 13.7456 107.258 13.8819 106.908 13.8819C106.558 13.8818 106.229 13.7456 105.982 13.4981C105.735 13.2509 105.598 12.9222 105.598 12.5723C105.598 12.2226 105.735 11.8937 105.982 11.6464C106.229 11.3991 106.558 11.2629 106.908 11.2629C107.258 11.2629 107.586 11.399 107.834 11.6464C108.345 12.1569 108.345 12.9876 107.834 13.4981Z" fill="#070707"/>
<path d="M85.9921 28.5776C85.7767 28.5776 85.5613 28.4956 85.397 28.3312C85.0682 28.0025 85.0682 27.4693 85.397 27.1406L90.2645 22.273C90.5932 21.9443 91.1263 21.9443 91.455 22.273C91.7838 22.6018 91.7838 23.1349 91.455 23.4637L86.5873 28.3312C86.423 28.4956 86.2076 28.5776 85.9921 28.5776Z" fill="#070707"/>
<path d="M87.0801 33.2417C86.8646 33.2417 86.6492 33.1595 86.4849 32.9951C86.1561 32.6664 86.1561 32.1335 86.4849 31.8048L91.5584 26.7312C91.8872 26.4024 92.4202 26.4024 92.7488 26.7312C93.0776 27.06 93.0776 27.593 92.7488 27.9217L87.6754 32.9951C87.511 33.1595 87.2955 33.2417 87.0801 33.2417Z" fill="#070707"/>
<path d="M91.7452 34.33C91.5297 34.33 91.3143 34.248 91.1499 34.0836C90.8211 33.7548 90.8211 33.2217 91.1499 32.8931L96.0175 28.0253C96.3462 27.6967 96.8793 27.6966 97.208 28.0253C97.5367 28.354 97.5367 28.8872 97.208 29.216L92.3404 34.0836C92.1761 34.2479 91.9607 34.33 91.7452 34.33Z" fill="#070707"/>
<path d="M116.604 2.87673C116.413 2.68564 116.142 2.59774 115.875 2.64071C115.778 2.65658 113.444 3.03978 110.265 4.2546C108.4 4.96715 106.628 5.82053 104.997 6.79105C102.996 7.98267 101.204 9.35617 99.6692 10.8738L93.3118 12.1115C93.1477 12.1434 92.9969 12.2236 92.8784 12.3415L87.1187 18.0827C86.8562 18.3443 86.7958 18.7466 86.9694 19.0738C87.1174 19.3524 87.4057 19.5208 87.7126 19.5208C87.7661 19.5208 87.82 19.5157 87.8739 19.5054L94.3703 18.2405C93.9474 19.0703 93.5518 19.9317 93.1845 20.8244C93.0555 21.1387 93.1277 21.4996 93.3679 21.74L94.9593 23.3314L93.4808 24.81C93.152 25.1387 93.152 25.6717 93.4808 26.0004C93.6452 26.1648 93.8605 26.247 94.0761 26.247C94.2915 26.247 94.5069 26.1648 94.6713 26.0005L96.1498 24.5219L97.7412 26.1135C97.9023 26.2743 98.1176 26.36 98.3367 26.36C98.4444 26.36 98.5532 26.3393 98.6567 26.2967C99.5495 25.9295 100.411 25.5338 101.24 25.1111L99.9759 31.6076C99.9051 31.9712 100.08 32.3383 100.407 32.512C100.532 32.5782 100.667 32.6104 100.802 32.6104C101.02 32.6104 101.236 32.5251 101.398 32.3627L107.139 26.6031C107.257 26.4848 107.337 26.3338 107.37 26.1697L108.607 19.8123C110.125 18.2771 111.498 16.4856 112.69 14.4839C113.66 12.8537 114.514 11.0817 115.226 9.2165C116.441 6.03677 116.824 3.70381 116.84 3.60595C116.883 3.33895 116.795 3.06769 116.604 2.87673ZM90.2639 17.3246L93.8853 13.715L97.7816 12.9565C96.9365 13.996 96.1526 15.1178 95.433 16.3183L90.2639 17.3246ZM105.766 25.5958L102.156 29.2172L103.163 24.0481C104.363 23.3285 105.485 22.5447 106.524 21.6995L105.766 25.5958ZM113.638 8.65593C112.575 11.4277 110.616 15.4242 107.317 18.723C105.798 20.2414 104.03 21.5911 102.033 22.7598C101.998 22.7776 101.963 22.7978 101.93 22.8205C100.861 23.4401 99.7275 24.0083 98.5316 24.5227L97.3404 23.3313L99.745 20.9268C100.074 20.5981 100.074 20.065 99.745 19.7362C99.4162 19.4075 98.8832 19.4076 98.5545 19.7362L96.1498 22.1407L94.9586 20.9493C95.4731 19.7533 96.0412 18.6192 96.661 17.5502C96.6836 17.5177 96.7033 17.4835 96.721 17.4482C97.8897 15.4512 99.2395 13.6827 100.758 12.1639C104.057 8.86533 108.053 6.9058 110.825 5.84297C112.509 5.19695 113.959 4.79414 114.918 4.56323C114.687 5.52185 114.284 6.97175 113.638 8.65593Z" fill="#070707"/>
</svg>
